<?xml version="1.0" standalone="no"?>
<!DOCTYPE svg PUBLIC "-//W3C//DTD SVG 20010904//EN"
 "http://www.w3.org/TR/2001/REC-SVG-20010904/DTD/svg10.dtd">
<svg version="1.0" xmlns="http://www.w3.org/2000/svg"
 width="300.000000pt" height="225.000000pt" viewBox="0 0 300.000000 225.000000"
 preserveAspectRatio="xMidYMid meet">
<metadata>
Created by potrace 1.10, written by Peter Selinger 2001-2011
</metadata>
<g transform="translate(0.000000,225.000000) scale(0.100000,-0.100000)"
fill="#000000" stroke="none">
<path d="M370 2237 c-14 -7 -46 -27 -72 -44 -26 -18 -54 -33 -62 -33 -9 0 -16
-4 -16 -9 0 -15 -130 -82 -174 -89 -22 -4 -41 -13 -44 -20 -6 -19 84 -5 123
18 199 120 304 174 345 178 42 3 51 0 130 -56 47 -33 96 -70 108 -82 13 -12
35 -26 49 -31 31 -11 188 -107 256 -155 56 -40 63 -41 71 -11 9 34 7 40 -9 33
-9 -3 -18 1 -22 9 -3 9 -13 14 -22 13 -10 -2 -15 3 -15 15 1 9 -5 17 -12 17
-8 0 -17 7 -21 16 -3 10 -13 14 -25 10 -16 -4 -19 -1 -15 16 5 17 2 19 -18 16
-14 -3 -26 0 -29 8 -3 8 -11 14 -18 14 -8 0 -22 9 -31 21 -14 15 -21 18 -31
10 -17 -15 -49 -3 -42 15 4 10 -5 14 -32 14 -34 1 -35 2 -18 15 10 7 15 18 11
24 -8 14 -35 14 -35 1 0 -15 -12 -12 -40 11 l-25 21 27 -6 c21 -5 26 -3 22 8
-7 17 -34 30 -34 16 0 -16 -27 -12 -33 4 -6 16 -3 16 -132 21 -57 3 -99 0
-115 -8z"/>
<path d="M730 2219 c30 -17 66 -41 79 -53 13 -11 21 -15 17 -8 -13 22 -114 92
-133 92 -10 0 7 -14 37 -31z"/>
<path d="M128 2170 c-26 -3 -56 -14 -67 -24 -26 -24 -20 -32 11 -14 12 7 46
18 73 23 61 13 48 23 -17 15z"/>
<path d="M355 2128 c11 -6 32 -25 48 -41 27 -29 38 -26 14 3 -16 21 -59 50
-72 50 -5 0 -1 -6 10 -12z"/>
<path d="M1330 2060 c8 -5 11 -10 5 -10 -5 -1 4 -7 20 -15 l30 -13 -38 -1
c-23 -1 -36 3 -32 9 3 6 1 10 -6 10 -23 0 -89 -23 -89 -32 0 -4 -8 -8 -17 -8
-10 -1 -29 -8 -43 -16 -24 -15 -24 -15 20 -11 l45 5 -37 -11 c-21 -6 -38 -14
-38 -19 0 -5 -4 -7 -9 -4 -5 3 -16 -5 -25 -19 -9 -14 -13 -25 -9 -25 3 0 -4
-11 -17 -25 -29 -30 -13 -33 19 -4 18 17 20 23 9 31 -10 8 -10 9 3 5 9 -3 24
4 33 15 10 11 24 17 32 14 8 -3 14 0 14 8 0 7 21 21 46 32 25 10 41 20 35 22
-5 2 -19 -2 -30 -8 -12 -6 -21 -7 -21 -2 0 4 15 13 33 20 39 14 50 15 44 5 -6
-9 100 -10 109 -1 6 7 -76 58 -92 58 -5 0 -2 -5 6 -10z"/>
<path d="M220 2031 c30 -10 73 -27 95 -38 43 -23 105 -79 105 -96 0 -6 3 -7 6
-4 12 12 -39 74 -86 105 -48 32 -109 52 -150 51 -17 -1 -7 -7 30 -18z"/>
<path d="M1526 2015 c7 -18 6 -18 -9 -6 -9 7 -17 9 -17 3 0 -14 25 -33 33 -25
4 3 17 -2 29 -13 22 -19 23 -19 8 1 -8 11 -23 29 -33 40 -18 20 -18 20 -11 0z"/>
<path d="M43 1993 c-6 -2 8 -22 33 -45 61 -57 59 -74 -16 -95 -36 -10 -60 -22
-60 -30 0 -10 5 -11 19 -4 10 6 40 15 66 21 54 12 75 2 75 -36 0 -13 5 -24 10
-24 6 0 10 14 10 30 0 68 -97 197 -137 183z"/>
<path d="M1615 1970 c17 -4 23 -8 14 -9 -21 -1 -69 -25 -69 -33 0 -5 -12 -8
-27 -8 -20 0 -24 -3 -14 -9 20 -13 -43 -25 -65 -13 -14 8 -7 13 39 28 31 10
57 21 57 26 0 10 -46 6 -56 -5 -4 -4 -13 -2 -21 4 -8 7 -13 8 -13 1 0 -18 -36
-19 -58 -1 -27 21 -53 18 -142 -20 -36 -16 -78 -33 -95 -39 -26 -9 -27 -11 -7
-11 12 -1 31 4 41 11 15 9 33 8 84 -6 36 -10 70 -15 75 -13 4 3 29 6 55 6 26
1 68 1 95 1 34 1 70 12 130 41 45 22 82 44 82 49 0 6 -30 9 -67 9 -53 -1 -61
-3 -38 -9z m-238 -55 c-9 -22 -35 -29 -62 -17 -17 8 -23 16 -18 28 5 15 8 14
15 -5 10 -29 42 -24 46 8 3 16 7 20 14 13 6 -6 8 -18 5 -27z"/>
<path d="M1518 1852 c-19 -4 -43 -74 -34 -97 3 -8 0 -16 -7 -18 -7 -2 -8 -8
-4 -13 11 -12 24 12 31 59 4 22 14 46 24 53 20 14 15 22 -10 16z"/>
<path d="M1072 1839 c-13 -5 -21 -13 -18 -18 3 -5 -1 -14 -9 -21 -8 -7 -13
-16 -10 -20 5 -8 -9 -96 -21 -134 -5 -15 0 -13 22 9 19 18 25 29 17 32 -18 7
1 39 35 58 21 12 22 14 5 10 -33 -9 -36 11 -6 34 l28 20 -25 -6 -25 -5 23 16
c38 29 29 43 -16 25z"/>
<path d="M1140 1770 c-12 -8 -13 -12 -2 -19 11 -6 6 -15 -20 -36 -18 -15 -26
-24 -18 -19 8 4 22 13 31 21 14 11 18 11 28 -1 13 -16 9 -20 -33 -30 -46 -11
-131 -72 -133 -96 -1 -11 2 -20 7 -20 5 0 7 -7 4 -15 -4 -8 -10 -13 -14 -10
-10 6 -20 -19 -26 -64 -2 -18 -8 -40 -13 -49 -5 -9 0 -50 16 -111 44 -175 55
-202 111 -270 94 -116 155 -180 164 -175 5 3 6 10 3 15 -4 5 -1 9 6 9 7 0 -4
16 -25 35 -21 19 -42 35 -46 35 -4 0 -19 17 -33 38 -13 20 -39 52 -56 71 -17
19 -31 39 -31 45 0 6 -5 4 -11 -4 -8 -11 -9 -2 -5 35 3 29 2 44 -3 37 -11 -18
-35 69 -36 130 0 25 -3 44 -7 41 -5 -2 -8 2 -8 9 0 9 -3 9 -10 -2 -7 -11 -8
-5 -6 21 2 20 6 41 10 48 4 6 4 11 0 11 -3 0 -1 7 6 15 10 12 10 15 0 15 -9 0
-9 4 1 17 8 9 13 17 12 17 -1 1 0 11 4 24 4 17 11 21 27 17 11 -2 15 -2 9 1
-7 3 -13 17 -13 30 0 14 5 23 13 22 6 -2 11 3 9 10 -1 7 11 15 28 18 17 4 27
11 23 17 -4 6 2 8 15 5 13 -4 19 -2 16 6 -4 12 40 36 68 36 10 0 18 5 18 11 0
6 -9 9 -20 6 -11 -3 -20 -1 -20 4 0 5 -8 9 -17 9 -15 0 -14 2 3 15 19 15 19
15 -1 8 -18 -6 -18 -5 -6 10 15 19 5 22 -19 7z"/>
<path d="M172 1713 c-1 -16 -2 -39 -4 -52 -2 -13 3 -26 9 -28 10 -3 13 11 12
51 -2 56 -16 80 -17 29z"/>
<path d="M1330 1710 c0 -5 -13 -10 -30 -10 -16 0 -30 -4 -30 -10 0 -17 65 -4
68 14 2 9 1 16 -2 16 -3 0 -6 -4 -6 -10z"/>
<path d="M1350 1685 c0 -9 5 -13 10 -10 6 4 5 -5 -2 -20 -8 -19 -9 -28 0 -37
8 -8 9 -5 5 11 -6 25 12 29 21 5 4 -9 9 -14 12 -11 3 3 1 15 -6 26 -7 14 -7
21 0 21 5 0 10 8 9 18 0 10 -3 12 -6 5 -3 -9 -10 -10 -24 -3 -15 9 -19 7 -19
-5z"/>
<path d="M1433 1679 c9 -6 15 -14 12 -18 -2 -5 6 -20 19 -34 15 -16 20 -29 14
-35 -6 -6 5 -8 27 -7 25 1 39 -4 45 -16 5 -9 30 -30 54 -45 43 -27 66 -58 66
-90 0 -8 8 -17 18 -21 9 -3 28 -15 41 -27 l23 -21 -6 25 c-6 19 -5 21 3 10 6
-8 8 -23 5 -32 -3 -9 3 -29 13 -44 12 -19 18 -50 19 -108 2 -45 7 -101 13
-125 8 -38 7 -47 -7 -59 -9 -7 -12 -11 -5 -8 6 4 14 2 18 -4 4 -6 11 -7 17 -4
8 5 9 1 5 -10 -5 -11 -3 -15 5 -10 8 5 9 2 5 -10 -5 -11 -3 -15 5 -10 7 5 9 2
6 -8 -4 -8 2 -28 13 -44 30 -46 22 -50 -17 -10 -19 20 -32 41 -29 46 4 6 2 9
-5 8 -23 -6 -39 49 -46 155 -3 59 -9 107 -13 107 -4 0 -4 -30 0 -67 11 -97 11
-135 -1 -128 -5 3 -10 18 -11 33 l-1 27 -7 -25 -7 -24 -17 24 c-9 13 -18 43
-18 65 l-2 40 -7 -35 c-9 -45 -18 -24 -23 50 l-3 55 -2 -58 c-1 -36 -6 -56
-12 -52 -5 3 -10 16 -10 28 0 16 -3 18 -9 9 -11 -19 -21 18 -21 84 0 37 -4 54
-15 58 -17 6 -20 -5 -6 -19 6 -6 11 -37 12 -69 2 -49 8 -65 31 -92 25 -28 26
-33 11 -38 -15 -6 -15 -9 -3 -16 8 -5 18 -6 22 -4 4 3 23 -6 41 -20 19 -14 36
-23 40 -20 3 3 25 -24 50 -60 24 -36 46 -64 49 -61 2 3 5 -1 5 -9 0 -24 -29 1
-77 66 -39 53 -66 78 -86 78 -4 0 0 -8 8 -17 8 -10 24 -35 36 -56 19 -33 20
-40 8 -52 -7 -8 -16 -12 -19 -9 -3 3 -3 -5 0 -18 6 -21 5 -22 -10 -9 -14 11
-17 11 -17 0 0 -11 25 -14 119 -15 97 -1 118 1 114 12 -3 8 -10 11 -15 8 -6
-4 -8 2 -3 17 5 19 4 21 -4 9 -6 -8 -11 -13 -12 -10 -9 48 -8 64 2 50 9 -12
10 -11 4 5 -3 11 -9 33 -12 50 -5 22 -8 25 -12 12 -6 -15 -9 -16 -24 -5 -13
10 -22 41 -32 113 -7 55 -12 102 -9 104 2 3 11 -4 20 -15 14 -18 15 -17 8 16
-3 19 -12 46 -19 60 -7 14 -16 42 -20 63 -4 20 -11 37 -16 37 -5 0 -9 7 -9 16
0 8 -4 13 -8 10 -9 -5 -21 14 -42 72 -7 18 -17 35 -21 38 -5 3 -4 -6 3 -20 6
-15 8 -29 5 -33 -7 -6 -47 34 -47 47 0 3 -13 22 -30 40 -36 40 -41 26 -5 -16
26 -30 27 -38 4 -29 -24 9 -64 77 -64 109 0 21 -5 32 -17 34 -10 2 -18 -1 -18
-7 0 -6 5 -11 10 -11 7 0 7 -6 0 -20 -6 -11 -17 -20 -24 -20 -16 0 -48 34 -40
43 9 8 -21 37 -38 37 -8 0 -6 -5 5 -11z"/>
<path d="M1183 1631 c-13 -11 -23 -22 -23 -26 0 -4 -13 -27 -30 -51 -16 -24
-26 -44 -21 -44 12 0 55 49 49 56 -7 6 12 32 46 65 26 25 8 24 -21 0z"/>
<path d="M1571 1641 c-9 -6 -10 -11 -2 -15 6 -4 11 -3 11 2 0 12 103 -42 120
-63 7 -8 19 -15 26 -15 7 0 11 -6 8 -14 -5 -12 43 -56 60 -56 13 0 -19 39 -36
43 -10 3 -17 11 -16 18 3 13 -127 108 -147 109 -5 0 -16 -4 -24 -9z"/>
<path d="M1490 1510 c-12 -8 -11 -10 8 -10 12 0 22 -4 22 -10 0 -5 -7 -10 -16
-10 -11 0 -15 -6 -11 -20 4 -15 0 -20 -14 -20 -10 0 -19 -5 -19 -11 0 -7 7 -8
18 -3 9 4 31 7 47 6 l30 -1 -27 15 c-33 17 -37 28 -8 19 25 -8 26 6 3 34 -13
15 -22 18 -33 11z"/>
<path d="M1781 1438 c-1 -9 3 -19 8 -22 5 -3 16 -36 26 -73 9 -38 26 -99 37
-136 11 -37 17 -75 14 -83 -3 -9 0 -39 8 -67 8 -29 20 -71 26 -95 7 -25 15
-40 22 -36 6 4 8 -1 4 -13 -6 -18 17 -63 27 -53 5 5 -4 44 -87 355 -36 134
-83 259 -85 223z m134 -465 c3 -21 -6 0 -19 47 -14 47 -25 90 -25 95 1 17 38
-102 44 -142z"/>
<path d="M1480 1414 c0 -4 71 -44 78 -44 4 1 -3 9 -16 19 -15 13 -18 21 -10
23 7 3 -2 5 -19 5 -18 0 -33 -1 -33 -3z"/>
<path d="M1495 1381 c6 -10 2 -12 -16 -7 -21 6 -20 4 4 -9 34 -19 29 -32 -5
-15 l-23 11 23 -20 c12 -10 22 -24 22 -30 0 -6 5 -11 11 -11 6 0 9 -6 7 -12
-5 -14 20 -44 28 -35 3 3 -3 22 -12 43 -9 22 -18 42 -19 47 -2 4 -4 9 -5 12
-1 3 -3 9 -4 14 0 5 -5 13 -10 18 -5 5 -6 2 -1 -6z"/>
<path d="M1660 1289 c0 -5 4 -8 10 -4 5 3 14 -13 21 -35 7 -22 16 -40 21 -40
4 0 9 -24 10 -52 1 -52 2 -53 5 -9 3 24 1 51 -3 60 -4 9 -8 22 -10 29 -7 37
-54 81 -54 51z"/>
<path d="M1157 1213 c-15 -15 -5 -81 20 -133 14 -30 26 -58 25 -62 -1 -4 7
-12 19 -18 20 -11 20 -11 3 22 -9 18 -25 44 -35 58 -12 16 -20 46 -21 83 -2
31 -3 57 -4 57 0 0 -4 -3 -7 -7z"/>
<path d="M2985 1040 c-3 -5 -12 -7 -19 -4 -8 3 -17 0 -21 -5 -3 -6 -10 -9 -15
-6 -5 3 -11 1 -15 -5 -3 -5 -1 -10 5 -10 7 0 10 -7 7 -14 -4 -10 -1 -13 8 -9
8 3 13 9 10 13 -3 4 2 13 10 20 8 7 15 8 15 3 0 -5 7 -10 15 -10 8 0 15 9 15
19 0 20 -6 23 -15 8z"/>
<path d="M2860 986 c-6 -8 -17 -13 -24 -10 -16 6 -41 -22 -27 -30 5 -4 12 -2
16 4 4 7 12 7 25 0 15 -8 18 -7 14 3 -3 8 2 22 11 31 9 9 12 16 7 16 -5 0 -15
-6 -22 -14z"/>
<path d="M2969 976 c-14 -13 -35 -27 -47 -30 -12 -4 -20 -11 -17 -16 3 -5 0
-12 -6 -16 -8 -4 -9 -3 -5 4 10 17 -7 15 -30 -4 -10 -8 -14 -13 -8 -10 6 3 11
0 11 -7 0 -8 -12 -11 -34 -9 -27 4 -32 1 -27 -12 5 -12 0 -16 -20 -16 -14 0
-26 -4 -26 -9 0 -12 -29 -23 -41 -15 -6 4 -6 10 0 18 7 9 -7 7 -42 -5 -28 -10
-59 -18 -68 -19 -9 0 -20 -8 -24 -17 -5 -15 -4 -16 6 -5 7 6 25 12 40 12 15 0
31 5 34 10 3 6 13 10 22 10 15 0 10 -14 -5 -16 -10 -1 -63 -22 -87 -35 -11 -5
-30 -11 -43 -12 -12 0 -22 -6 -22 -13 0 -6 -10 -9 -23 -7 -26 5 -137 -34 -137
-48 0 -5 -8 -9 -17 -9 -17 1 -17 1 0 14 28 22 20 35 -20 31 -21 -1 -40 1 -43
5 -9 13 -53 24 -46 11 4 -6 12 -11 18 -11 13 0 56 -49 64 -73 3 -10 11 -17 17
-14 7 2 57 19 112 37 171 55 386 140 514 203 30 15 37 35 22 59 -7 12 -8 17
-2 13 6 -3 11 1 11 9 0 20 -1 20 -31 -8z"/>
<path d="M2695 941 c-3 -6 -1 -11 6 -11 8 0 6 -6 -4 -18 -22 -24 -22 -42 -1
-42 14 0 14 3 4 15 -10 12 -10 15 1 17 8 0 19 2 24 2 6 1 15 5 22 9 6 4 14 3
18 -3 3 -5 1 -10 -5 -10 -6 0 -8 -4 -5 -10 7 -12 26 -14 24 -2 -4 21 2 42 12
42 6 0 8 -7 4 -17 -5 -14 -4 -15 6 -6 10 10 10 15 0 27 -11 13 -16 12 -42 -2
-28 -16 -31 -16 -44 1 -8 12 -15 14 -20 8z"/>
<path d="M1511 918 c0 -16 -8 -29 -20 -33 -23 -7 -59 -45 -43 -45 12 0 16 -38
7 -62 -3 -8 -22 -13 -53 -12 -26 0 -61 -3 -79 -7 -46 -10 -54 18 -10 34 17 6
35 10 40 9 4 -1 7 3 7 8 0 7 -16 9 -39 6 -25 -3 -46 1 -60 11 -14 9 -52 17
-99 19 -50 2 -72 0 -62 -6 12 -7 10 -11 -10 -18 -33 -13 -48 -3 -24 16 18 13
17 14 -11 7 -36 -8 -57 -25 -31 -25 10 0 16 -6 13 -12 -2 -7 -13 -13 -25 -12
-13 0 -18 -4 -15 -13 3 -7 -2 -13 -11 -13 -9 0 -16 7 -16 16 0 15 -2 15 -25 0
-13 -9 -38 -16 -55 -16 -16 0 -30 -4 -30 -10 0 -5 -8 -10 -18 -10 -9 0 -34
-11 -54 -25 -20 -14 -46 -25 -57 -25 -11 0 -23 -5 -26 -10 -4 -6 -10 -8 -15
-5 -19 11 -62 -8 -71 -32 -9 -24 -15 -25 -66 -6 -7 3 -13 -2 -13 -10 0 -17
-45 -27 -128 -29 -46 -1 -52 -4 -46 -20 6 -20 -6 -24 -23 -7 -8 8 -17 8 -32 0
-12 -7 -21 -9 -21 -6 0 3 -13 -1 -30 -10 -33 -17 -70 -20 -70 -5 0 6 10 15 23
21 18 8 15 8 -13 3 -19 -3 -43 -6 -52 -6 -10 1 -18 -3 -18 -9 0 -5 9 -9 20 -9
11 0 20 -5 20 -11 0 -8 -21 -10 -68 -7 -73 5 -102 -5 -102 -36 0 -15 7 -17 38
-12 20 3 62 8 92 11 67 8 178 29 286 55 45 11 104 21 132 23 31 3 73 16 109
34 32 17 74 34 93 38 19 4 58 19 85 34 71 39 179 61 302 61 100 0 106 -1 125
-25 24 -31 74 -35 83 -6 9 28 98 33 140 9 17 -10 40 -18 52 -18 13 0 32 -13
47 -33 14 -18 43 -46 65 -62 l39 -30 22 -145 c45 -307 40 -293 104 -288 33 2
42 7 44 24 3 21 4 20 32 -7 16 -16 37 -29 48 -29 44 0 42 65 -7 255 -40 152
-64 292 -60 349 4 57 0 66 -26 66 -14 0 -25 -4 -25 -10 0 -16 -30 -12 -36 5
-4 8 -10 13 -14 10 -5 -3 -11 -1 -15 5 -8 13 -35 13 -35 1 0 -5 8 -11 18 -14
9 -2 -4 -3 -30 -2 -27 1 -48 -1 -48 -6 0 -5 -5 -9 -11 -9 -5 0 -7 5 -3 12 5 8
2 9 -12 3 -10 -4 -41 -13 -69 -18 -62 -13 -59 -11 -45 -36 15 -29 2 -26 -27 7
-18 20 -23 35 -19 60 3 21 1 32 -7 32 -7 0 -4 5 6 11 9 5 22 7 27 4 14 -9 22
17 17 52 l-4 28 -2 -27z m-325 -104 c-3 -8 -1 -14 3 -14 5 0 11 7 15 15 9 23
26 18 26 -9 0 -23 -2 -24 -75 -22 -45 0 -74 5 -72 11 2 6 12 12 23 14 10 2 22
9 26 16 10 17 61 7 54 -11z m90 -28 c-3 -11 -6 -25 -6 -31 -1 -20 -20 21 -20
42 0 16 4 21 16 16 10 -4 14 -13 10 -27z m585 -29 c-16 -20 -26 -260 -12 -283
10 -16 12 -16 7 -2 -3 10 -2 27 2 38 6 15 17 -23 40 -127 32 -145 39 -203 25
-203 -20 0 -53 46 -53 74 0 17 -7 69 -16 116 -14 79 -19 89 -66 140 -36 40
-44 45 -27 20 12 -19 32 -46 45 -60 22 -25 54 -149 54 -211 0 -66 -50 -107
-69 -57 -5 13 -22 105 -39 205 -17 100 -36 192 -43 205 -12 22 -12 22 -20 3
-7 -20 -8 -20 -8 0 -1 30 -29 65 -52 65 -11 0 -35 14 -55 32 -27 24 -31 34
-21 40 15 8 119 16 230 17 57 1 67 4 67 19 1 16 1 16 11 -1 7 -12 7 -22 0 -30z"/>
<path d="M1605 878 c-8 -21 -35 -24 -35 -5 0 8 -4 7 -10 -3 -9 -13 -10 -13
-10 0 0 10 -9 6 -25 -13 -14 -15 -25 -38 -25 -50 1 -18 3 -16 15 11 12 27 19
32 49 32 19 0 36 -3 39 -7 2 -5 2 -3 1 4 -2 6 2 13 8 15 6 2 9 11 6 19 -5 11
-7 11 -13 -3z"/>
<path d="M2560 870 c-8 -5 -11 -12 -7 -16 3 -4 13 -2 20 4 10 9 17 8 25 0 9
-9 12 -9 12 3 0 17 -29 22 -50 9z"/>
<path d="M927 822 c-21 -23 -21 -32 -2 -32 8 0 15 5 15 11 0 7 8 18 18 25 15
12 15 13 1 14 -9 0 -23 -8 -32 -18z"/>
<path d="M1377 823 c-17 -17 -3 -20 56 -14 4 1 7 6 7 11 0 11 -53 14 -63 3z"/>
<path d="M1991 823 c4 -23 -3 -31 -22 -26 -16 4 -17 8 -7 14 9 6 9 9 1 9 -6 0
-15 -5 -18 -10 -4 -6 -15 -8 -26 -5 -11 4 -19 2 -19 -4 0 -6 14 -11 30 -11 17
0 30 -4 30 -9 0 -4 -11 -6 -25 -3 -14 2 -25 1 -25 -3 0 -9 27 -35 32 -30 2 3
39 -4 81 -14 111 -26 161 -68 254 -211 31 -47 86 -121 122 -165 37 -44 94
-116 126 -160 33 -44 81 -106 108 -138 44 -51 53 -57 83 -55 19 1 34 6 34 11
0 4 -9 6 -19 2 -24 -7 -43 23 -44 71 -1 20 -6 34 -14 34 -7 0 -10 -7 -7 -15 5
-11 2 -13 -10 -9 -10 4 -15 13 -12 20 3 8 -1 14 -10 14 -9 0 -18 9 -21 19 -3
11 -15 22 -26 25 -17 5 -19 8 -8 15 7 5 21 7 30 4 10 -2 23 3 30 11 11 13 10
17 -5 23 -10 3 -19 2 -21 -3 -5 -15 -63 -4 -63 11 0 7 -9 15 -21 18 -12 3 -18
10 -14 16 3 6 -5 15 -20 21 -20 8 -25 15 -20 30 5 16 2 20 -19 20 -14 0 -26 5
-26 11 0 6 7 9 15 5 8 -3 15 -1 15 4 0 5 9 2 19 -7 11 -9 17 -22 14 -29 -7
-19 22 -18 37 2 8 8 9 14 4 12 -5 -2 -19 7 -32 20 -16 16 -29 21 -47 16 -19
-5 -25 -2 -25 10 0 9 -8 16 -20 16 -13 0 -18 5 -14 15 3 8 11 13 17 12 6 -1
13 6 15 16 2 9 -1 17 -7 17 -6 0 -8 -6 -5 -14 4 -11 0 -13 -17 -9 -12 3 -24
14 -26 25 -3 10 -14 18 -24 18 -33 0 -31 20 3 21 23 1 26 3 11 6 -39 8 -19 41
21 34 12 -2 16 1 11 9 -4 6 -17 9 -28 6 -12 -3 -28 0 -36 7 -12 9 -13 9 -7 0
4 -7 3 -13 -3 -13 -5 0 -9 8 -8 19 1 12 7 17 22 14 11 -2 8 2 -7 8 -26 10 -32
22 -31 57 1 6 -3 12 -8 12 -5 0 -9 -8 -9 -17 0 -16 -1 -16 -13 1 -7 9 -22 18
-33 18 -11 1 -21 8 -21 15 0 17 34 17 40 1 4 -10 6 -10 6 0 1 7 -5 15 -13 18
-8 3 -12 13 -9 22 2 10 -6 27 -19 39 -22 21 -24 21 -24 3 0 -10 2 -17 5 -15 6
6 31 -15 31 -26 0 -5 -9 -9 -20 -9 -11 0 -20 -6 -20 -12 0 -7 -8 -2 -17 12
-12 17 -13 25 -5 28 21 7 13 25 -8 19 -11 -3 -18 -1 -14 4 3 5 -6 9 -20 9 -20
0 -24 -4 -19 -17 6 -14 2 -14 -23 4 -16 11 -37 19 -47 18 -9 -2 -15 1 -11 6 3
5 -3 9 -13 10 -10 0 -13 3 -6 5 13 6 6 34 -8 34 -5 0 -8 -3 -8 -7z m289 -196
c3 1 6 -14 7 -33 2 -21 -2 -34 -9 -34 -6 0 -8 3 -5 7 4 3 -4 21 -18 39 -31 40
-32 48 -2 32 12 -7 24 -12 27 -11z"/>
<path d="M2490 802 c0 -7 -4 -11 -10 -7 -5 3 -19 0 -30 -7 -17 -11 -22 -11
-29 0 -7 11 -9 11 -14 -2 -4 -9 -10 -16 -14 -15 -4 1 -17 1 -28 0 -17 -1 -18
-3 -5 -11 14 -9 63 -5 85 8 5 3 20 7 33 8 31 4 33 6 22 24 -7 11 -10 12 -10 2z"/>
<path d="M1880 755 c0 -20 98 -190 105 -183 6 6 -28 108 -36 108 -3 0 -5 12
-2 28 3 23 2 24 -6 7 -8 -16 -10 -17 -10 -3 -1 18 -27 48 -42 48 -5 0 -9 -2
-9 -5z"/>
<path d="M2523 288 c2 -7 8 -13 13 -13 5 0 14 -3 19 -6 23 -14 45 -18 45 -9 0
6 -6 10 -14 10 -7 0 -19 7 -26 15 -15 18 -43 20 -37 3z"/>
<path d="M2724 93 c-9 -15 -5 -22 24 -45 46 -37 66 -35 25 2 -18 16 -28 32
-23 35 11 7 4 25 -8 25 -4 0 -12 -8 -18 -17z"/>
</g>
</svg>
